<?xml version="1.0" encoding="iso-8859-1"?>
<!-- Uploaded to: SVG Repo, www.svgrepo.com, Generator: SVG Repo Mixer Tools -->
<!DOCTYPE svg PUBLIC "-//W3C//DTD SVG 1.1//EN" "http://www.w3.org/Graphics/SVG/1.1/DTD/svg11.dtd">
<svg fill="#000000" version="1.1" id="Capa_1" xmlns="http://www.w3.org/2000/svg" xmlns:xlink="http://www.w3.org/1999/xlink" 
	 width="800px" height="800px" viewBox="0 0 45.814 45.814"
	 xml:space="preserve">
<g>
	<g>
		<path d="M29.319,17.088c-1.853-1.838-4.846-1.835-6.694,0.013c-1.853,1.851-1.853,4.855,0,6.708
			c0.091,0.09,4.485,4.465,6.104,6.074c0.326,0.325,0.855,0.325,1.181,0c1.619-1.609,6.015-5.984,6.104-6.074
			c1.853-1.853,1.853-4.856,0-6.708C34.165,15.253,31.173,15.25,29.319,17.088z"/>
		<path d="M38.003,0H12.767C9.379,0,6.631,2.728,6.621,6.112h2.448c2.458,0,4.458,2.012,4.458,4.47s-2,4.471-4.458,4.471H6.62v3.384
			h2.448c2.458,0,4.458,2.012,4.458,4.47s-2,4.47-4.458,4.47H6.62v3.436h2.448c2.458,0,4.458,1.986,4.458,4.444
			s-2,4.445-4.458,4.445H6.62c0.024,3.384,2.767,6.112,6.146,6.112h25.236c3.396,0,6.146-2.752,6.146-6.146V6.147
			C44.149,2.752,41.397,0,38.003,0z M40.108,39.678c0,1.192-0.953,2.146-2.146,2.146H18.54V3.991h19.422
			c1.193,0,2.146,0.979,2.146,2.172V39.678L40.108,39.678z"/>
		<path d="M4.134,13.033h4.935c1.362,0,2.467-1.087,2.467-2.45c0-1.362-1.104-2.45-2.467-2.45H4.134
			c-1.362,0-2.467,1.087-2.467,2.45C1.667,11.945,2.772,13.033,4.134,13.033z"/>
		<path d="M4.134,25.408h4.935c1.362,0,2.467-1.112,2.467-2.475c0-1.362-1.104-2.475-2.467-2.475H4.134
			c-1.362,0-2.467,1.113-2.467,2.475C1.667,24.295,2.772,25.408,4.134,25.408z"/>
		<path d="M11.535,35.258c0-1.363-1.104-2.475-2.467-2.475H4.134c-1.362,0-2.467,1.111-2.467,2.475c0,1.362,1.104,2.475,2.467,2.475
			h4.935C10.431,37.732,11.535,36.62,11.535,35.258z"/>
	</g>
</g>
</svg>