<?xml version="1.0" encoding="utf-8"?>

<!DOCTYPE svg PUBLIC "-//W3C//DTD SVG 1.1//EN" "http://www.w3.org/Graphics/SVG/1.1/DTD/svg11.dtd">
<!-- Uploaded to: SVG Repo, www.svgrepo.com, Generator: SVG Repo Mixer Tools -->
<svg height="800px" width="800px" version="1.1" id="_x32_" xmlns="http://www.w3.org/2000/svg" xmlns:xlink="http://www.w3.org/1999/xlink" 
	 viewBox="0 0 512 512"  xml:space="preserve">
<style type="text/css">
	.st0{fill:#000000;}
</style>
<g>
	<path class="st0" d="M67.222,321.722c3.981,11.087,9.068,21.66,15.076,31.71l76.594-45.804c-3.131-5.282-5.874-10.9-8.024-16.767
		L67.222,321.722z"/>
	<path class="st0" d="M187.049,436.485l27.16-84.93c-17.997-5.704-33.423-16.276-45.204-29.911l-67.51,58.262
		C123.762,405.695,153.033,425.663,187.049,436.485z"/>
	<path class="st0" d="M422.153,190.839c-3.981-11.086-9.068-21.659-15.068-31.647l-76.532,45.742
		c3.132,5.282,5.874,10.9,8.024,16.766L422.153,190.839z"/>
	<path class="st0" d="M302.31,76.046l-27.152,84.93c17.99,5.711,33.486,16.292,45.251,29.972l67.51-58.246
		C365.66,106.843,336.319,86.929,302.31,76.046z"/>
	<path class="st0" d="M249.666,224.965c-17.289-2.743-33.526,9.053-36.268,26.334c-2.743,17.296,9.053,33.525,26.334,36.268
		c17.288,2.742,33.525-9.038,36.268-26.334C278.742,243.952,266.955,227.707,249.666,224.965z"/>
	<path class="st0" d="M323.105,268.704c0.662-4.207,0.99-8.392,0.99-12.528c-0.008-38.395-27.861-72.091-66.949-78.316
		c-4.208-0.662-8.391-0.989-12.528-0.989c-38.402,0-72.099,27.86-78.316,66.949c-0.67,4.199-0.997,8.391-0.997,12.528
		c0,38.41,27.868,72.099,66.949,78.316c4.206,0.67,8.39,0.989,12.528,0.989C283.184,335.653,316.872,307.791,323.105,268.704z
		 M244.781,316.081c-3.117,0-6.272-0.242-9.451-0.748c-29.45-4.651-50.455-30.112-50.455-58.986c0-3.116,0.249-6.272,0.755-9.459
		c4.651-29.442,30.113-50.447,58.987-50.447c3.116,0,6.272,0.249,9.45,0.756c29.45,4.651,50.456,30.112,50.456,58.979
		c0,3.116-0.25,6.272-0.756,9.458C299.108,295.084,273.647,316.081,244.781,316.081z"/>
	<path class="st0" d="M299.926,358.348h-33.774c-1.286,0-2.15,0.772-2.15,1.932v127.672c0,1.162,0.865,1.932,2.15,1.932h33.774
		c19.143,0,30.33-6.965,35.496-21.082c2.578-7.16,3.654-16.057,3.654-44.69c0-28.624-1.076-37.522-3.654-44.682
		C330.257,365.313,319.069,358.348,299.926,358.348z M313.046,461.643c-2.578,6.576-7.308,9.482-15.488,9.482h-9.248
		c-0.857,0-1.293-0.39-1.293-1.161V378.27c0-0.772,0.436-1.161,1.293-1.161h9.248c8.181,0,12.91,2.906,15.488,9.482
		c1.722,4.83,2.587,11.219,2.587,37.522C315.633,450.423,314.768,456.805,313.046,461.643z"/>
	<path class="st0" d="M424.249,358.348h-18.075c-1.286,0-2.151,0.577-2.361,1.932l-16.354,88.787h-0.647L369.82,360.28
		c-0.21-1.356-0.857-1.932-2.15-1.932h-18.496c-1.722,0-2.15,0.772-1.939,1.932l29.045,127.672c0.211,1.162,0.857,1.932,2.15,1.932
		h16.564c1.285,0,1.932-0.771,2.15-1.932l29.038-127.672C426.399,359.119,425.963,358.348,424.249,358.348z"/>
	<path class="st0" d="M508.346,379.431c-5.166-14.117-16.353-21.083-35.496-21.083h-33.774c-1.285,0-2.15,0.772-2.15,1.932v127.672
		c0,1.162,0.865,1.932,2.15,1.932h33.774c19.143,0,30.33-6.965,35.496-21.082c2.579-7.16,3.654-16.057,3.654-44.69
		C512,395.488,510.925,386.591,508.346,379.431z M485.97,461.643c-2.578,6.576-7.308,9.482-15.489,9.482h-9.248
		c-0.857,0-1.285-0.39-1.285-1.161V378.27c0-0.772,0.428-1.161,1.285-1.161h9.248c8.181,0,12.91,2.906,15.489,9.482
		c1.722,4.83,2.586,11.219,2.586,37.522C488.556,450.423,487.692,456.805,485.97,461.643z"/>
	<path class="st0" d="M82.898,393.322c-31.679-37.436-50.276-85.577-50.276-136.772c0-11.048,0.865-22.236,2.649-33.51
		c8.305-52.263,34.935-96.875,72.372-128.576c37.436-31.686,85.578-50.276,136.773-50.276c11.047,0,22.236,0.865,33.51,2.649
		c52.263,8.305,96.874,34.928,128.576,72.372c31.686,37.436,50.275,85.578,50.275,136.773c0,11.047-0.865,22.236-2.648,33.51
		c-1.465,9.216-3.693,18.106-6.256,26.817h34.016c1.784-7.098,3.28-14.336,4.448-21.706c2.065-12.964,3.062-25.875,3.062-38.62
		c0-59.142-21.488-114.716-57.996-157.848c-36.494-43.147-88.18-73.969-148.366-83.513c-12.964-2.056-25.874-3.054-38.62-3.054
		c-59.142,0-114.709,21.488-157.848,57.998c-43.147,36.494-73.969,88.18-83.505,148.365C0.997,230.893,0,243.803,0,256.55
		c0,59.142,21.488,114.708,57.998,157.847c36.493,43.147,88.179,73.969,148.365,83.505c8.446,1.348,16.845,2.072,25.212,2.532
		v-32.622c-6.669-0.42-13.362-1.051-20.101-2.119C159.212,457.389,114.6,430.759,82.898,393.322z"/>
</g>
</svg>